# xmcd
#
# Track frame offsets: 
#        150
#        17013
#        32026
#        49438
#        59058
#        77718
#        99820
#        113776
#        132365
#        149844
#        168210
#        186256
#
# Disc length: 2730 seconds
#
# Revision: 0
# Processed by: cddbd v1.5.2PL0 Copyright (c) Steve Scherf et al.
# Submitted via: ExactAudioCopy v1.1
#
DISCID=a90aa80c
DTITLE=Melvin Taylor - Beyond The Burning Guitar - CD 1
DYEAR=2010
DGENRE=Blues
TTITLE0=Dueling Guitars of Rio Terra
TTITLE1=Steppers 1
TTITLE2=Passionate
TTITLE3=Melvin Meets Beethoven's Fifth
TTITLE4=Steppers 2
TTITLE5=Strollin'
TTITLE6=Next Phase
TTITLE7=The Hook Up
TTITLE8=Early Riser
TTITLE9=Rock In Blues
TTITLE10=The Mann
TTITLE11=Feelin' Good
EXTD=
EXTT0=
EXTT1=
EXTT2=
EXTT3=
EXTT4=
EXTT5=
EXTT6=
EXTT7=
EXTT8=
EXTT9=
EXTT10=
EXTT11=
PLAYORDER=
